<svg id="" data-name="Layer 1" xmlns="http://www.w3.org/2000/svg" viewBox="0 0 215.79 170.46"><title>
                    logo</title>
                    <path d="M138.84,181.75q0,2.78-3.62,4.34a58.07,58.07,0,0,1-10.38,3l-3.38.72q-7.24,1.57-11.77,2.9a24.55,24.55,0,0,0-7.72,3.68,7.47,7.47,0,0,0-3.32,6,4.32,4.32,0,0,0-.24,1.09,13.58,13.58,0,0,0-.12,1.93,15,15,0,0,0,2.84,8.51q2.83,4.16,10.44,6.22c.24,0,.68,0,1.33-.12a19.77,19.77,0,0,1,2.41-.12q4,0,5.19,1.33.72.6.06,1.21a3.53,3.53,0,0,1-2.35.6,19.87,19.87,0,0,1-6-1.21,39.74,39.74,0,0,1-8-3.86,15.71,15.71,0,0,1-5.79-5.67,35.91,35.91,0,0,1-3.14-8.45,44.1,44.1,0,0,0-3.5-8.93,18.23,18.23,0,0,0-6.16-6.28,1.26,1.26,0,0,1-.24-.42,2.12,2.12,0,0,1-.12-.78q0-2.66,7.24-3.14,4.35-.24,9.78-.72V174.5a18.41,18.41,0,0,1-2.41.12A20.7,20.7,0,0,1,90,172.09a92.34,92.34,0,0,1-11.53-7.6l-4.59-3.26q-6.76-4.59-11.95-4.59a10.11,10.11,0,0,0-5.73,1.57,12.54,12.54,0,0,0-3.56,3.38,7.58,7.58,0,0,0-1.21,2.17A8.21,8.21,0,0,1,50,166.9c-.56.65-1,1-1.45,1a.58.58,0,0,1-.54-.36,1.19,1.19,0,0,1-.06-.85q.24-1.09,3.26-4.83a55.62,55.62,0,0,1,7.54-7.54,27.57,27.57,0,0,1,9.6-5.37h.12A41.06,41.06,0,0,0,82.35,135.1,31.58,31.58,0,0,0,87.06,119a24.48,24.48,0,0,0-2.84-11.71A20.56,20.56,0,0,0,76.08,99a32.3,32.3,0,0,0-16.41-4.71,25.75,25.75,0,0,0-9.41,1.69,19.68,19.68,0,0,0-6.88,4.22q-2.53,2.53-2.53,4.95,0,5.55,14.72,10a42.27,42.27,0,0,1,11.1,5.55,1.79,1.79,0,0,1,.85,1.69,2,2,0,0,1-.48,1.45,12.72,12.72,0,0,0-1.81,4.65,56.08,56.08,0,0,0-.72,6.82,70.36,70.36,0,0,1-.91,7.3A15.12,15.12,0,0,1,61.41,148a12.28,12.28,0,0,1-5,4.22A16.49,16.49,0,0,1,49,154.11a11.45,11.45,0,0,1-6.4-1.81,12.47,12.47,0,0,1-4.28-4.65,12.08,12.08,0,0,1-1.51-5.73,7.18,7.18,0,0,1,.12-1.57A9.59,9.59,0,0,1,38.73,136a3.28,3.28,0,0,1,2.47-1.33,2.77,2.77,0,0,1,1.45.36,2.15,2.15,0,0,1,.85.85,2.13,2.13,0,0,1,.12,1.69,1.42,1.42,0,0,1-.24.36,5.39,5.39,0,0,0-3.26,2.17A6.48,6.48,0,0,0,38.91,144a8.13,8.13,0,0,0,1.45,4.59,8.71,8.71,0,0,0,4.22,3.26A16.48,16.48,0,0,0,50.49,153a11,11,0,0,0,6.76-2.17,14,14,0,0,0,4.4-5.49,16.32,16.32,0,0,0,1.51-6.82q.12-4.22-5.85-7.3a125.85,125.85,0,0,0-15.63-6.46q-1.21-.48-2.41-.85a19,19,0,0,1-2.29-.84,5.37,5.37,0,0,1-3.14-5.19,8.17,8.17,0,0,1,.36-2.47c.24-.76.4-1.27.48-1.51q1.09-2.17,5.13-9.47T48,90.87q2.41-3.74,9-6.52a35.19,35.19,0,0,1,13.82-2.78,25.58,25.58,0,0,1,16.35,5.49q6.94,5.49,8.75,17.56a39.34,39.34,0,0,1,.36,5.31,35.68,35.68,0,0,1-7.78,22.69,65.51,65.51,0,0,1-17.56,15.81,19.53,19.53,0,0,1,11.53,2.9,86.06,86.06,0,0,1,12.25,9.41,86,86,0,0,0,7.6,6.16V147.71a34.06,34.06,0,0,0-4.4-5.61,41.71,41.71,0,0,0-4.77-4.77q4.71,0,9.17-6V93.4h1.09v38.38a12.21,12.21,0,0,0,3.38,4.22,27.68,27.68,0,0,0,4.47,3.5,20.43,20.43,0,0,0-4.89,2.72,8.1,8.1,0,0,0-3,5.49v19.91a9.59,9.59,0,0,0,4.71,1.45,6,6,0,0,0,4.22-1.69V119.83q0-4.22-1.15-6.22a5.38,5.38,0,0,0-2.59-2.53q-1.45-.54-1.45-.3l5.19-4,17.26-12.07a15.78,15.78,0,0,0-1.09,3.2,73.35,73.35,0,0,0-2,8.87,69.13,69.13,0,0,0-.9,11.59v36a30.19,30.19,0,0,0,3.14,9.84,166.23,166.23,0,0,0,8.81,14.18A6.75,6.75,0,0,1,138.84,181.75Zm-7.48-6.28a6.53,6.53,0,0,0-.66-2.84,25.08,25.08,0,0,0-2.23-3.56,47.72,47.72,0,0,1-3.38-5.85,16.2,16.2,0,0,1-1.33-5.61q-10.5,14.6-20.4,16.78v9.05q26.79-2.42,27.88-6.76A4.31,4.31,0,0,0,131.35,175.47Z" transform="translate(-33.84 -55.92)" style="fill:#a67c52"></path>
                    <path d="M106.73,136a12.21,12.21,0,0,1-3.38-4.22l-1.09-.48q-4.47,6-9.17,6a41.71,41.71,0,0,1,4.77,4.77,34.11,34.11,0,0,1,4.4,5.61h1.09a8.1,8.1,0,0,1,3-5.49,20.43,20.43,0,0,1,4.89-2.72A27.68,27.68,0,0,1,106.73,136Z" transform="translate(-33.84 -55.92)" style="fill:#666"></path>
                    <path d="M149,133.23v1.57l-4.34,2.41v21.36q0,2.17,3.2,3.86a13.47,13.47,0,0,0,6.34,1.69,4.31,4.31,0,0,0,3.14-1l4.59-5.07-.12-36.57q-3.62-.12-13.21-.24t-8.63,0a32.83,32.83,0,0,1,11.52,7.3,30.1,30.1,0,0,1,5.91,8,23,23,0,0,1,1.87,5.13v.24q0,1.21-1.45,1.21a1.53,1.53,0,0,1-.91-.3,1.33,1.33,0,0,1-.54-.78,20.81,20.81,0,0,0-5.07-10.8,32.8,32.8,0,0,0-9.29-7.6q-5.07-2.72-8-2.59l12.55-13.52a8.2,8.2,0,0,1,.36,1.21,3.1,3.1,0,0,0,1.39,1.75,6.11,6.11,0,0,0,3.44.79h15.57a10.59,10.59,0,0,0,3.56-.72,21.25,21.25,0,0,0,3.44-1.57q1.45-.84,1.81-1.09a41.49,41.49,0,0,0-2.41,8.51,44.53,44.53,0,0,0-.72,7.18v27.64a18.63,18.63,0,0,0,1.69,8.57q1.69,3.26,4,4l2.66-3,1,.84-10.74,12.19a26.16,26.16,0,0,1-6.52-7,23.7,23.7,0,0,1-2.9-6.76l-12.07,13.76q0,.24-4.59-1.09a26.65,26.65,0,0,1-8.27-4,8.23,8.23,0,0,1-3.68-7v-11.1a14.62,14.62,0,0,0-.6-4.65,8.14,8.14,0,0,0-1.33-2.59q-.72-.84-.72-.72Z" transform="translate(-33.84 -55.92)" style="fill:#666"></path>
                    <path d="M193.62,79.77q-.12.36-.6,1.87a29.13,29.13,0,0,0-.91,4.53,53,53,0,0,0-.42,7.24v58.17a15.82,15.82,0,0,0,2,8.27,16.55,16.55,0,0,0,3.92,4.77l3.38-4,1,.84-10.74,12.31a37.4,37.4,0,0,1-7.78-8.69,18.1,18.1,0,0,1-2.65-6.46,63.57,63.57,0,0,1-.3-7.18V102.33a19.84,19.84,0,0,0-.72-6,6.8,6.8,0,0,0-1.63-3q-.91-.78-.9-.54Z" transform="translate(-33.84 -55.92)" style="fill:#666"></path>
                    <path d="M216.31,133.23v1.57L212,137.21v21.36q0,2.17,3.2,3.86a13.47,13.47,0,0,0,6.34,1.69,4.31,4.31,0,0,0,3.14-1l4.59-5.07-.12-36.57q-3.62-.12-13.21-.24t-8.63,0a32.83,32.83,0,0,1,11.52,7.3,30.1,30.1,0,0,1,5.91,8,23,23,0,0,1,1.87,5.13v.24q0,1.21-1.45,1.21a1.53,1.53,0,0,1-.91-.3,1.33,1.33,0,0,1-.54-.78,20.81,20.81,0,0,0-5.07-10.8,32.8,32.8,0,0,0-9.29-7.6q-5.07-2.72-8-2.59l12.55-13.52a8.2,8.2,0,0,1,.36,1.21,3.1,3.1,0,0,0,1.39,1.75,6.11,6.11,0,0,0,3.44.79h15.57a10.59,10.59,0,0,0,3.56-.72,21.25,21.25,0,0,0,3.44-1.57q1.45-.84,1.81-1.09a41.49,41.49,0,0,0-2.41,8.51,44.53,44.53,0,0,0-.72,7.18v27.64a18.63,18.63,0,0,0,1.69,8.57q1.69,3.26,4,4l2.66-3,1,.84-10.74,12.19a26.16,26.16,0,0,1-6.52-7,23.7,23.7,0,0,1-2.9-6.76L217.4,173.78q0,.24-4.59-1.09a26.65,26.65,0,0,1-8.27-4,8.23,8.23,0,0,1-3.68-7v-11.1a14.62,14.62,0,0,0-.6-4.65,8.14,8.14,0,0,0-1.33-2.59q-.72-.84-.72-.72Z" transform="translate(-33.84 -55.92)" style="fill:#666"></path>
                    <path d="M55.19,169.19a4.49,4.49,0,0,1,4.51-4.73c2.63,0,4.43,2,4.43,4.73a4.46,4.46,0,0,1-4.58,4.74A4.41,4.41,0,0,1,55.19,169.19Z" transform="translate(-33.84 -55.92)" style="fill:#666"></path>
                    <path d="M66.06,169.19a4.49,4.49,0,0,1,4.51-4.73c2.63,0,4.43,2,4.43,4.73a4.46,4.46,0,0,1-4.58,4.74A4.41,4.41,0,0,1,66.06,169.19Z" transform="translate(-33.84 -55.92)" style="fill:#666"></path>
                    <text transform="translate(78.45 160.44)" style="font-size:33.87588119506836px;fill:#a67c52;font-family:BerlinSansFBDemi-Bold, Berlin Sans FB Demi;font-weight:700">
                        CODING 
                    </text>
                    <text transform="translate(89.73 168.27)" style="font-size:5.800960063934326px;fill:#6d6e70;font-family:Arial-BoldMT, Arial;font-weight:700">
                        YOU FEEL NOT GOOD . RUN OUR CODE 
                    </text>
                    <path d="M193,59.85c-5.64,2.22-11.45,4.22-17,6l-.11-.11.68-3.47c6.49-2.11,13.22-4.44,18.23-6.38l.11.17Z" transform="translate(-33.84 -55.92)" style="fill:#a67c52"></path>
                    <path d="M167.77,96.45c-5.64,2.22-11.45,4.22-17,6l-.11-.11.68-3.47c6.49-2.11,13.22-4.44,18.23-6.38l.11.17Z" transform="translate(-33.84 -55.92)" style="fill:#a67c52"></path>
                    <path d="M191.43,63.89a19.38,19.38,0,0,1,2,7.35,9.76,9.76,0,0,1-.29,3.13c-.68,2.28-1.76,3-3.19,3a5.11,5.11,0,0,1-3.47-1h-.17c-1.65,2-3.36,3.19-5,3.19a3.31,3.31,0,0,1-3-1.71,8.31,8.31,0,0,1-.8-4,13.06,13.06,0,0,1,.46-3.65c.68-.51,1.37-1,2-1.37l.17.11a12.51,12.51,0,0,0-.4,3.13c0,1.77.57,2.85,1.77,2.85a2.43,2.43,0,0,0,2.51-2.62l-.17-3.87A14.83,14.83,0,0,1,185.67,67l.17.11c.11,2.91.91,4.67,2.05,5.35a4.16,4.16,0,0,0,1.82.57,2,2,0,0,0,1.37-.57,25.87,25.87,0,0,0-2-5.7,29.09,29.09,0,0,1,2.11-2.9Z" transform="translate(-33.84 -55.92)" style="fill:#a67c52"></path>
                    <path d="M143.18,182.44h0a1.93,1.93,0,0,1,1.75-2.07H240a1.93,1.93,0,0,1,1.75,2.07h0A1.93,1.93,0,0,1,240,184.5h-95.1A1.93,1.93,0,0,1,143.18,182.44Z" transform="translate(-33.84 -55.92)" style="fill:#666"></path>
                    <path d="M233.06,86.36V78.21H230V76.79h7.82v1.42h-3.12v8.15Zm5.79,0V76.79h2.35l2.42,7.65L246,76.79h2.3v9.57H246.8v-8l-2.47,8h-1.44l-2.57-8.15v8.15Z" transform="translate(-33.84 -55.92)" style="fill:#a67c52"></path>
                </svg>